<?xml version="1.0" standalone="no"?><!DOCTYPE svg PUBLIC "-//W3C//DTD SVG 1.1//EN" "http://www.w3.org/Graphics/SVG/1.1/DTD/svg11.dtd"><svg t="1626924268265" class="icon" viewBox="0 0 1024 1024" version="1.1" xmlns="http://www.w3.org/2000/svg" p-id="2972" xmlns:xlink="http://www.w3.org/1999/xlink" width="200" height="200"><defs><style type="text/css">@font-face { font-family: feedback-iconfont; src: url("//at.alicdn.com/t/font_1031158_1uhr8ri0pk5.eot?#iefix") format("embedded-opentype"), url("//at.alicdn.com/t/font_1031158_1uhr8ri0pk5.woff2") format("woff2"), url("//at.alicdn.com/t/font_1031158_1uhr8ri0pk5.woff") format("woff"), url("//at.alicdn.com/t/font_1031158_1uhr8ri0pk5.ttf") format("truetype"), url("//at.alicdn.com/t/font_1031158_1uhr8ri0pk5.svg#iconfont") format("svg"); }
</style></defs><path d="M550.4 204.8c0-49.4592 40.1408-89.6 89.6-89.6H819.2c49.4592 0 89.6 40.1408 89.6 89.6v179.2A89.6 89.6 0 0 1 819.2 473.6h-179.2a89.6 89.6 0 0 1-89.6-89.6V204.8z m89.6-12.8a12.8 12.8 0 0 0-12.8 12.8v179.2c0 7.0656 5.7344 12.8 12.8 12.8H819.2a12.8 12.8 0 0 0 12.8-12.8V204.8a12.8 12.8 0 0 0-12.8-12.8h-179.2z m-435.2 358.4a89.6 89.6 0 0 0-89.6 89.6V819.2c0 49.4592 40.1408 89.6 89.6 89.6h179.2A89.6 89.6 0 0 0 473.6 819.2v-179.2a89.6 89.6 0 0 0-89.6-89.6H204.8z m-12.8 89.6a12.8 12.8 0 0 1 12.8-12.8h179.2a12.8 12.8 0 0 1 12.8 12.8V819.2a12.8 12.8 0 0 1-12.8 12.8H204.8a12.8 12.8 0 0 1-12.8-12.8v-179.2z m448-89.6a89.6 89.6 0 0 0-89.6 89.6V819.2c0 49.4592 40.1408 89.6 89.6 89.6H819.2A89.6 89.6 0 0 0 908.8 819.2v-179.2A89.6 89.6 0 0 0 819.2 550.4h-179.2z m-12.8 89.6a12.8 12.8 0 0 1 12.8-12.8H819.2a12.8 12.8 0 0 1 12.8 12.8V819.2a12.8 12.8 0 0 1-12.8 12.8h-179.2a12.8 12.8 0 0 1-12.8-12.8v-179.2zM204.8 115.2A89.6 89.6 0 0 0 115.2 204.8v179.2c0 49.4592 40.1408 89.6 89.6 89.6h179.2A89.6 89.6 0 0 0 473.6 384V204.8A89.6 89.6 0 0 0 384 115.2H204.8zM192 204.8A12.8 12.8 0 0 1 204.8 192h179.2a12.8 12.8 0 0 1 12.8 12.8v179.2a12.8 12.8 0 0 1-12.8 12.8H204.8a12.8 12.8 0 0 1-12.8-12.8V204.8z" p-id="2973"></path></svg>