<?xml version="1.0" standalone="no"?><!DOCTYPE svg PUBLIC "-//W3C//DTD SVG 1.1//EN" "http://www.w3.org/Graphics/SVG/1.1/DTD/svg11.dtd"><svg t="1625640577287" class="icon" viewBox="0 0 1280 1024" version="1.1" xmlns="http://www.w3.org/2000/svg" p-id="25472" xmlns:xlink="http://www.w3.org/1999/xlink" width="250" height="200"><defs><style type="text/css"></style></defs><path d="M0 0h320.256v321.088H0z" opacity=".9" p-id="25473"></path><path d="M319.488 0h320.256v321.088H319.488z" opacity=".6" p-id="25474"></path><path d="M639.744 0h320v321.088h-320z" opacity=".5" p-id="25475"></path><path d="M0 321.088h320.256v320.768H0z" opacity=".3" p-id="25476"></path><path d="M319.488 321.088h320.256v320.768H319.488z" opacity=".7" p-id="25477"></path><path d="M639.744 321.088h320v320.768h-320z" opacity=".4" p-id="25478"></path><path d="M959.744 0H1280v321.088h-320.256z" opacity=".1" p-id="25479"></path><path d="M959.744 321.088H1280v320.768h-320.256z" opacity=".8" p-id="25480"></path><path d="M0 641.92h320.256v320.768H0z" opacity=".2" p-id="25481"></path><path d="M319.488 641.92h320.256v320.768H319.488z" opacity=".6" p-id="25482"></path><path d="M639.744 641.92h320v320.768h-320z" opacity=".5" p-id="25483"></path><path d="M959.744 640H1280v320.768h-320.256z" opacity=".9" p-id="25484"></path></svg>