<?xml version="1.0" standalone="no"?><!DOCTYPE svg PUBLIC "-//W3C//DTD SVG 1.1//EN" "http://www.w3.org/Graphics/SVG/1.1/DTD/svg11.dtd"><svg t="1625640013519" class="icon" viewBox="0 0 1152 1024" version="1.1" xmlns="http://www.w3.org/2000/svg" p-id="5460" xmlns:xlink="http://www.w3.org/1999/xlink" width="225" height="200"><defs><style type="text/css"></style></defs><path d="M681.376 131.584L516.064 271.968a14.176 14.176 0 0 1-16.32 1.312L320 166.784a14.208 14.208 0 0 0-16.96 1.92l-170.72 161.6a13.792 13.792 0 0 0-4.352 10.08v157.664c0 12.224 14.88 18.56 23.84 10.048l150.528-143.168a14.208 14.208 0 0 1 16.96-1.92l206.816 121.28a14.368 14.368 0 0 0 15.136-0.512l167.936-114.752a12.64 12.64 0 0 1 4.48-2.048l331.776-84.704a13.888 13.888 0 0 0 10.528-13.44V45.952a14.048 14.048 0 0 0-17.792-13.44l-351.36 96.192a14.848 14.848 0 0 0-5.44 2.88z" p-id="5461"></path><path d="M543.872 553.344a13.248 13.248 0 0 1-15.136 0.64l-208.8-130.944a13.376 13.376 0 0 0-16.832 2.08L132.352 599.68A15.488 15.488 0 0 0 128 610.56v270.4c0 8.288 6.304 15.008 14.048 15.008h899.904c7.744 0 14.048-6.72 14.048-15.04V352.224c0-9.824-8.704-16.96-17.568-14.496l-324.064 89.6a12.736 12.736 0 0 0-4.608 2.176L543.872 553.376z" p-id="5462"></path><path d="M64 960h1056a32 32 0 0 1 0 64H32a32 32 0 0 1-32-32V32a32 32 0 0 1 64 0v928z" p-id="5463"></path></svg>