<?xml version="1.0" standalone="no"?><!DOCTYPE svg PUBLIC "-//W3C//DTD SVG 1.1//EN" "http://www.w3.org/Graphics/SVG/1.1/DTD/svg11.dtd"><svg t="1625627625744" class="icon" viewBox="0 0 1024 1024" version="1.1" xmlns="http://www.w3.org/2000/svg" p-id="10719" xmlns:xlink="http://www.w3.org/1999/xlink" width="200" height="200"><defs><style type="text/css"></style></defs><path d="M155.488 433.952c8.234667 0 16.330667 0.864 24.288 2.592 7.957333 1.738667 16.330667 4.426667 25.109333 8.074667v64c-12.437333-15.146667-27.808-22.709333-46.101333-22.709334-8.053333 0-15.498667 1.461333-22.368 4.373334a54.432 54.432 0 0 0-17.706667 11.904 54.752 54.752 0 0 0-11.648 17.909333 58.624 58.624 0 0 0-4.266666 22.421333c0 8.213333 1.429333 15.776 4.266666 22.698667 2.826667 6.933333 6.762667 12.949333 11.797334 18.048a55.317333 55.317333 0 0 0 17.706666 12.032c6.762667 2.922667 14.08 4.373333 21.941334 4.373333 17.205333 0 32.661333-7.285333 46.378666-21.866666v63.445333l-5.482666 1.92c-8.234667 2.912-15.914667 5.045333-23.050667 6.421333-7.146667 1.365333-14.186667 2.048-21.130667 2.048-14.272 0-27.946667-2.688-41.034666-8.064a107.306667 107.306667 0 0 1-34.570667-22.698666c-9.973333-9.76-17.973333-21.333333-24.010667-34.730667-6.037333-13.408-9.066667-28.032-9.066666-43.893333s2.986667-30.4 8.928-43.626667a108.565333 108.565333 0 0 1 23.872-34.176 109.226667 109.226667 0 0 1 34.72-22.432 108.586667 108.586667 0 0 1 41.429333-8.064z m211.008 66.453333c12.074667 0 23.274667 1.866667 33.610667 5.610667 10.346667 3.733333 19.306667 8.928 26.901333 15.573333a69.941333 69.941333 0 0 1 17.706667 23.797334c4.202667 9.216 6.293333 19.370667 6.293333 30.506666 0 11.114667-2.133333 21.28-6.442667 30.485334a72.394667 72.394667 0 0 1-17.706666 23.786666c-7.488 6.656-16.501333 11.808-27.018667 15.456-10.528 3.648-21.909333 5.472-34.165333 5.472-12.074667 0-23.242667-1.824-33.493334-5.472-10.24-3.648-19.061333-8.853333-26.474666-15.594666a72.330667 72.330667 0 0 1-17.418667-24.202667c-4.213333-9.386667-6.314667-19.818667-6.314667-31.306667 0-10.389333 2.101333-20.096 6.314667-29.12a71.552 71.552 0 0 1 17.557333-23.52c7.498667-6.656 16.426667-11.904 26.752-15.733333 10.346667-3.829333 21.642667-5.738667 33.898667-5.738667z m147.488 5.194667v79.04c0 17.312 8.416 25.973333 25.248 25.973333 16.832 0 25.248-8.661333 25.248-25.973333V505.6h49.664v88.608c0 18.954667-6.261333 33.173333-18.794667 42.666667-12.533333 9.472-31.242667 14.218667-56.117333 14.218666-24.885333 0-43.594667-4.746667-56.128-14.229333-12.522667-9.472-18.794667-23.701333-18.794667-42.666667V505.6h49.674667z m277.290667-86.688v226.986667h-49.952V630.293333c-10.602667 13.312-24.96 19.968-43.082667 19.968-10.24 0-19.669333-1.92-28.266667-5.749333a69.92 69.92 0 0 1-22.506666-15.861333 72.554667 72.554667 0 0 1-14.944-23.786667 80.32 80.32 0 0 1-5.354667-29.546667c0-10.026667 1.696-19.541333 5.077333-28.565333a71.552 71.552 0 0 1 14.4-23.658667 68.170667 68.170667 0 0 1 22.368-16c8.693333-3.914667 18.250667-5.877333 28.682667-5.877333 17.557333 0 32.106667 6.101333 43.626667 18.325333v-100.64h49.952z m-522.602667 0v226.986667h-49.664v-226.986667h49.664z m97.813333 124.426667a32.106667 32.106667 0 0 0-12.48 2.453333 30.186667 30.186667 0 0 0-10.154666 6.848c-2.837333 2.912-5.12 6.293333-6.858667 10.112a29.418667 29.418667 0 0 0-2.602667 12.309333c0 4.746667 0.864 9.066667 2.602667 12.992 1.738667 3.914667 4.021333 7.338667 6.858667 10.250667 2.837333 2.922667 6.218667 5.205333 10.154666 6.837333 3.936 1.642667 8.106667 2.464 12.48 2.464a32.106667 32.106667 0 0 0 12.490667-2.453333 30.186667 30.186667 0 0 0 10.154667-6.848c2.837333-2.912 5.12-6.336 6.858666-10.250667 1.738667-3.914667 2.613333-8.16 2.613334-12.714666 0-4.373333-0.874667-8.533333-2.613334-12.448a34.794667 34.794667 0 0 0-6.858666-10.250667 30.186667 30.186667 0 0 0-10.154667-6.837333 32.106667 32.106667 0 0 0-12.48-2.453334z m344.384 0.544a32.106667 32.106667 0 0 0-12.48 2.464 30.186667 30.186667 0 0 0-10.165333 6.837333c-2.837333 2.922667-5.12 6.250667-6.858667 9.984-1.738667 3.733333-2.602667 7.786667-2.602666 12.16a32.501333 32.501333 0 0 0 9.184 22.976c2.837333 2.922667 6.229333 5.205333 10.154666 6.837333 3.946667 1.642667 8.192 2.464 12.768 2.464a32.106667 32.106667 0 0 0 12.48-2.453333 30.186667 30.186667 0 0 0 10.154667-6.848c2.837333-2.912 5.12-6.293333 6.858667-10.112 1.738667-3.84 2.613333-7.936 2.613333-12.309333 0-4.373333-0.874667-8.522667-2.613333-12.437334a34.794667 34.794667 0 0 0-6.858667-10.261333 30.186667 30.186667 0 0 0-10.154667-6.826667 32.106667 32.106667 0 0 0-12.48-2.474666z m-30.08-292.352c9.664 0 18.634667 1.493333 26.901334 4.501333a66.613333 66.613333 0 0 1 21.525333 12.490667c6.08 5.333333 10.794667 11.701333 14.165333 19.093333 3.36 7.370667 5.045333 15.52 5.045334 24.437333 0 8.917333-1.717333 17.066667-5.162667 24.458667a58.048 58.048 0 0 1-14.165333 19.072c-5.994667 5.333333-13.205333 9.472-21.632 12.394667a82.784 82.784 0 0 1-27.338667 4.384 79.221333 79.221333 0 0 1-26.784-4.384 61.856 61.856 0 0 1-21.194667-12.501334 58.005333 58.005333 0 0 1-13.952-19.413333c-3.36-7.52-5.045333-15.893333-5.045333-25.098667 0-8.341333 1.685333-16.117333 5.045333-23.36a57.376 57.376 0 0 1 14.058667-18.858666 66.848 66.848 0 0 1 21.408-12.608c8.277333-3.072 17.312-4.608 27.125333-4.608z m296.661334-65.344v182.005333H937.493333v-12.490667c-8.490667 10.666667-19.978667 16-34.474666 16a54.88 54.88 0 0 1-40.629334-17.322666 58.197333 58.197333 0 0 1-11.968-19.072 64.533333 64.533333 0 0 1-4.277333-23.68c0-8.053333 1.354667-15.68 4.053333-22.933334a57.397333 57.397333 0 0 1 11.530667-18.954666 54.56 54.56 0 0 1 17.898667-12.832 55.072 55.072 0 0 1 22.954666-4.714667c14.048 0 25.696 4.896 34.912 14.688v-80.693333h39.968zM417.386667 202.848l28.544 106.794667L481.066667 202.848h34.261333l35.136 106.794667 28.554667-106.794667h45.013333l-49.408 165.344h-43.925333l-32.501334-95.829333-32.501333 95.829333h-43.925333L372.373333 202.848h45.013334z m421.952 50.442667c1.237333 0 2.666667 0.138667 4.277333 0.426666v37.941334a37.813333 37.813333 0 0 0-17.130667-3.946667c-9.226667 0-16.138667 2.741333-20.746666 8.224-4.618667 5.482667-6.922667 13.493333-6.922667 24.021333v48.234667h-39.744V255.701333h39.744v18.421334c4.245333-6.72 9.44-11.882667 15.594667-15.466667 6.144-3.584 13.322667-5.365333 21.514666-5.365333h3.413334z m-158.549334 32.672c-3.52 0-6.848 0.661333-9.994666 1.973333a24.149333 24.149333 0 0 0-8.117334 5.482667c-2.272 2.346667-4.106667 5.045333-5.493333 8.106666-1.386667 3.072-2.090667 6.368-2.090667 9.877334 0 3.797333 0.693333 7.274667 2.090667 10.410666 1.386667 3.146667 3.221333 5.888 5.493333 8.224 2.261333 2.346667 4.970667 4.16 8.117334 5.482667s6.485333 1.973333 9.994666 1.973333c3.52 0 6.848-0.650667 9.994667-1.973333 3.146667-1.312 5.856-3.136 8.128-5.482667 2.261333-2.346667 4.096-5.077333 5.482667-8.213333 1.386667-3.146667 2.090667-6.549333 2.090666-10.208 0-3.509333-0.693333-6.826667-2.090666-9.973333a27.904 27.904 0 0 0-5.482667-8.224 24.149333 24.149333 0 0 0-8.128-5.482667 25.642667 25.642667 0 0 0-9.994667-1.973333z m232.32 0.437333c-3.52 0-6.848 0.661333-9.994666 1.973333a24.149333 24.149333 0 0 0-8.117334 5.482667c-2.272 2.346667-4.106667 5.013333-5.493333 8-1.386667 2.997333-2.090667 6.250667-2.090667 9.76a26.112 26.112 0 0 0 7.36 18.421333c2.272 2.346667 4.981333 4.16 8.128 5.482667s6.549333 1.973333 10.208 1.973333c3.52 0 6.848-0.650667 9.994667-1.973333 3.146667-1.312 5.856-3.136 8.128-5.482667 2.261333-2.346667 4.096-5.045333 5.482667-8.106666 1.386667-3.072 2.090667-6.368 2.090666-9.877334 0-3.509333-0.693333-6.826667-2.090666-9.973333a27.904 27.904 0 0 0-5.482667-8.224 24.149333 24.149333 0 0 0-8.128-5.482667 25.642667 25.642667 0 0 0-9.994667-1.973333z" opacity=".9" p-id="10720"></path><path d="M115.733333 287.68c-4.821333-5.898667-10.794667-8.853333-17.909333-8.853333-3.125333 0-6.016 0.576-8.682667 1.706666-2.666667 1.141333-4.96 2.688-6.88 4.64-1.92 1.962667-3.434667 4.288-4.533333 6.986667a22.933333 22.933333 0 0 0-1.653333 8.746667c0 3.2 0.554667 6.144 1.653333 8.853333a21.493333 21.493333 0 0 0 19.989333 13.44c6.688-0.010667 12.693333-2.858667 18.026667-8.533333v24.725333l-2.133333 0.746667c-3.2 1.141333-6.186667 1.973333-8.96 2.506666-2.773333 0.533333-5.504 0.8-8.213334 0.8a41.386667 41.386667 0 0 1-15.936-3.146666 41.685333 41.685333 0 0 1-13.44-8.853334 44.032 44.032 0 0 1-9.322666-13.536 41.301333 41.301333 0 0 1-3.52-17.109333c0-6.186667 1.152-11.850667 3.466666-17.013333 2.304-5.152 5.397333-9.6 9.28-13.333334 3.872-3.733333 8.362667-6.634667 13.482667-8.736 5.12-2.090667 10.485333-3.146667 16.106667-3.146666 3.2 0 6.336 0.341333 9.429333 1.013333 3.093333 0.672 6.346667 1.728 9.76 3.146667v24.96z m26.453334-34.976v88.501333h-19.306667v-88.501333h19.306667z m27.189333 60.885333c0 1.856 0.341333 3.541333 1.013333 5.066667 0.672 1.525333 1.568 2.858667 2.666667 4a11.733333 11.733333 0 0 0 3.946667 2.666667c1.525333 0.64 3.146667 0.96 4.853333 0.96 1.706667 0 3.317333-0.32 4.842667-0.96a11.733333 11.733333 0 0 0 3.946666-2.666667c1.109333-1.141333 1.994667-2.474667 2.666667-4 0.682667-1.525333 1.013333-3.178667 1.013333-4.96 0-1.706667-0.330667-3.317333-1.013333-4.842667a13.568 13.568 0 0 0-2.666667-4 11.733333 11.733333 0 0 0-3.946666-2.666666 12.437333 12.437333 0 0 0-4.842667-0.96c-1.706667 0-3.328 0.32-4.853333 0.96a11.733333 11.733333 0 0 0-3.946667 2.666666c-1.098667 1.130667-1.994667 2.453333-2.666667 3.946667-0.672 1.493333-1.013333 3.093333-1.013333 4.8z m-20.373333-0.213333c0-4.053333 0.821333-7.829333 2.453333-11.349333 1.642667-3.52 3.914667-6.581333 6.826667-9.173334 2.922667-2.592 6.389333-4.64 10.4-6.133333 4.021333-1.493333 8.405333-2.24 13.173333-2.24 4.693333 0 9.045333 0.736 13.056 2.186667 4.021333 1.461333 7.498667 3.488 10.453333 6.08 2.944 2.592 5.237333 5.685333 6.88 9.28 1.632 3.584 2.453333 7.552 2.453334 11.882666a27.84 27.84 0 0 1-9.386667 21.173334 30.805333 30.805333 0 0 1-10.506667 6.016c-4.085333 1.429333-8.512 2.133333-13.269333 2.133333-4.693333 0-9.034667-0.704-13.013333-2.133333a30.026667 30.026667 0 0 1-10.293334-6.08 28.202667 28.202667 0 0 1-6.762666-9.429334 29.610667 29.610667 0 0 1-2.453334-12.213333z m91.818666-26.869333v30.826666c0 6.741333 3.264 10.122667 9.813334 10.122667 6.528 0 9.802667-3.381333 9.802666-10.133333V286.506667h19.306667v34.56c0 7.381333-2.442667 12.928-7.306667 16.629333-4.874667 3.690667-12.138667 5.546667-21.813333 5.546667-9.664 0-16.928-1.856-21.802667-5.546667-4.864-3.701333-7.306667-9.248-7.306666-16.64V286.506667h19.306666z m65.674667 27.2a12.714667 12.714667 0 0 0 3.573333 8.949333 11.733333 11.733333 0 0 0 3.946667 2.666667c1.525333 0.64 3.178667 0.96 4.96 0.96 1.706667 0 3.328-0.32 4.853333-0.96a11.733333 11.733333 0 0 0 3.946667-2.666667c1.098667-1.141333 1.984-2.453333 2.666667-3.946667a11.872 11.872 0 0 0 0-9.653333 13.568 13.568 0 0 0-2.666667-3.989333 11.733333 11.733333 0 0 0-3.946667-2.666667 12.437333 12.437333 0 0 0-4.853333-0.96c-1.706667 0-3.328 0.32-4.853333 0.96a11.733333 11.733333 0 0 0-3.946667 2.666667 14.026667 14.026667 0 0 0-2.666667 3.893333 11.146667 11.146667 0 0 0-1.013333 4.736z m24.32-61.002667h19.402667v88.501333h-19.413334v-6.08c-4.117333 5.194667-9.706667 7.786667-16.736 7.786667a26.613333 26.613333 0 0 1-19.733333-8.426667 28.309333 28.309333 0 0 1-5.802667-9.269333 31.413333 31.413333 0 0 1-2.08-11.52c0-3.904 0.661333-7.616 1.973334-11.136 1.312-3.52 3.178667-6.592 5.6-9.226667a26.496 26.496 0 0 1 19.84-8.533333c6.816 0 12.469333 2.389333 16.949333 7.146667v-39.242667z" opacity=".5" p-id="10721"></path><path d="M169.354667 710.24l18.848 77.237333 23.2-77.237333h22.613333l23.2 77.237333 18.848-77.237333h29.717333l-32.618666 119.594667H244.16l-21.450667-69.312-21.461333 69.312H172.266667l-32.618667-119.594667h29.717333z m156.522666 78.506667a19.946667 19.946667 0 0 0 5.013334 13.482666 15.957333 15.957333 0 0 0 23.914666 0c1.493333-1.685333 2.709333-3.669333 3.626667-5.941333a19.52 19.52 0 0 0 1.376-7.381333 19.093333 19.093333 0 0 0-1.386667-7.210667 20.405333 20.405333 0 0 0-3.616-5.952 15.957333 15.957333 0 0 0-23.925333 0c-1.493333 1.696-2.698667 3.648-3.626667 5.866667-0.906667 2.218667-1.376 4.608-1.376 7.146666z m-27.68-0.32c0-6.016 1.109333-11.648 3.328-16.885334 2.229333-5.226667 5.312-9.781333 9.28-13.642666a43.477333 43.477333 0 0 1 14.133334-9.12 47.093333 47.093333 0 0 1 17.909333-3.328c6.378667 0 12.298667 1.077333 17.76 3.253333 5.461333 2.165333 10.197333 5.173333 14.208 9.034667 4.010667 3.861333 7.125333 8.458667 9.344 13.802666 2.229333 5.333333 3.338667 11.232 3.338667 17.685334s-1.141333 12.341333-3.413334 17.685333c-2.261333 5.333333-5.386667 9.941333-9.344 13.802667a41.162667 41.162667 0 0 1-14.282666 8.96 50.336 50.336 0 0 1-18.048 3.168c-6.378667 0-12.266667-1.056-17.685334-3.168a40.245333 40.245333 0 0 1-13.994666-9.045334 42.069333 42.069333 0 0 1-9.205334-14.037333 47.637333 47.637333 0 0 1-3.328-18.154667z m95.925334-39.968h26.24v13.333333c2.794667-4.874667 6.229333-8.597333 10.293333-11.189333 4.053333-2.592 8.789333-3.882667 14.208-3.882667h2.24c0.821333 0 1.770667 0.106667 2.826667 0.32v27.434667a23.189333 23.189333 0 0 0-11.306667-2.858667c-6.08 0-10.656 1.984-13.696 5.952-3.050667 3.968-4.565333 9.76-4.565333 17.365333v34.901334h-26.24v-81.376z m84.32 40.448c0 2.645333 0.437333 5.109333 1.312 7.381333 0.864 2.272 2.048 4.256 3.552 5.941333a15.957333 15.957333 0 0 0 12.106666 5.397334 15.957333 15.957333 0 0 0 11.957334-5.397334c1.493333-1.685333 2.709333-3.648 3.626666-5.866666 0.917333-2.218667 1.376-4.597333 1.376-7.136a19.093333 19.093333 0 0 0-1.386666-7.221334 20.405333 20.405333 0 0 0-3.626667-5.941333 15.957333 15.957333 0 0 0-23.914667 0c-1.493333 1.685333-2.698667 3.626667-3.626666 5.792a17.92 17.92 0 0 0-1.376 7.050667z m33.066666-90.72h26.378667v131.648h-26.389333v-9.045334c-5.6 7.722667-13.194667 11.584-22.762667 11.584-5.408 0-10.389333-1.109333-14.933333-3.338666a37.162667 37.162667 0 0 1-11.882667-9.194667 42.858667 42.858667 0 0 1-7.893333-13.802667 50.666667 50.666667 0 0 1-2.837334-17.130666c0-5.813333 0.896-11.338667 2.688-16.576 1.781333-5.226667 4.32-9.813333 7.605334-13.717334a36.309333 36.309333 0 0 1 11.818666-9.28c4.586667-2.272 9.642667-3.413333 15.146667-3.413333 9.28 0 16.96 3.552 23.050667 10.634667v-58.368z m157.770667 52.021333c-6.570667-8.778667-14.688-13.162667-24.352-13.162667-4.256 0-8.192 0.853333-11.818667 2.538667-3.626667 1.685333-6.741333 3.989333-9.344 6.901333a32.213333 32.213333 0 0 0-6.165333 10.389334c-1.493333 4.010667-2.24 8.352-2.24 13.002666 0 4.757333 0.746667 9.141333 2.24 13.162667 1.493333 4.021333 3.573333 7.509333 6.229333 10.474667 2.666667 2.954667 5.781333 5.28 9.354667 6.976a26.773333 26.773333 0 0 0 11.594667 2.538666c9.088 0 17.258667-4.234667 24.501333-12.693333v36.8l-2.901333 1.109333a78.336 78.336 0 0 1-12.170667 3.733334 54.112 54.112 0 0 1-11.168 1.184 52.106667 52.106667 0 0 1-21.674667-4.682667 56.533333 56.533333 0 0 1-18.261333-13.162667 66.421333 66.421333 0 0 1-17.472-45.6c0-9.194667 1.568-17.632 4.714667-25.301333a63.36 63.36 0 0 1 12.608-19.829333 57.44 57.44 0 0 1 18.346666-13.002667 52.928 52.928 0 0 1 21.888-4.682667c4.352 0 8.629333 0.501333 12.832 1.514667 4.202667 1.002667 8.618667 2.56 13.258667 4.672v37.12z m33.301333-52.021333v131.648h-26.24V698.186667h26.24z m34.304 90.56a19.946667 19.946667 0 0 0 5.013334 13.482666 15.957333 15.957333 0 0 0 23.914666 0c1.493333-1.685333 2.709333-3.669333 3.626667-5.941333a19.52 19.52 0 0 0 1.376-7.381333 19.093333 19.093333 0 0 0-1.386667-7.210667 20.405333 20.405333 0 0 0-3.616-5.952 15.957333 15.957333 0 0 0-23.925333 0c-1.493333 1.696-2.698667 3.648-3.626667 5.866667-0.906667 2.218667-1.376 4.608-1.376 7.146666z m-27.68-0.32c0-6.016 1.109333-11.648 3.328-16.885334 2.229333-5.226667 5.312-9.781333 9.28-13.642666a43.477333 43.477333 0 0 1 14.133334-9.12 47.093333 47.093333 0 0 1 17.909333-3.328c6.378667 0 12.298667 1.077333 17.76 3.253333 5.461333 2.165333 10.197333 5.173333 14.208 9.034667 4.010667 3.861333 7.125333 8.458667 9.344 13.802666 2.229333 5.333333 3.338667 11.232 3.338667 17.685334s-1.141333 12.341333-3.413334 17.685333c-2.261333 5.333333-5.386667 9.941333-9.344 13.802667a41.162667 41.162667 0 0 1-14.282666 8.96 50.336 50.336 0 0 1-18.048 3.168c-6.378667 0-12.266667-1.056-17.685334-3.168a40.245333 40.245333 0 0 1-13.994666-9.045334 42.069333 42.069333 0 0 1-9.205334-14.037333 47.637333 47.637333 0 0 1-3.328-18.154667z m122.165334-39.968v45.845333c0 10.048 4.437333 15.072 13.333333 15.072 8.896 0 13.333333-5.024 13.333333-15.072v-45.845333h26.24v51.392c0 10.997333-3.306667 19.253333-9.92 24.746666-6.624 5.504-16.512 8.245333-29.653333 8.245334-13.141333 0-23.029333-2.741333-29.653333-8.245334-6.613333-5.493333-9.92-13.749333-9.92-24.746666v-51.392h26.24z m86.645333 40.448c0 2.645333 0.426667 5.109333 1.301333 7.381333 0.874667 2.272 2.058667 4.256 3.552 5.941333a15.957333 15.957333 0 0 0 12.106667 5.397334 15.957333 15.957333 0 0 0 11.957333-5.397334c1.493333-1.685333 2.709333-3.648 3.626667-5.866666 0.917333-2.218667 1.386667-4.597333 1.386667-7.136a19.093333 19.093333 0 0 0-1.386667-7.221334 20.405333 20.405333 0 0 0-3.626667-5.941333 15.957333 15.957333 0 0 0-23.914666 0c-1.493333 1.685333-2.709333 3.626667-3.626667 5.792a17.92 17.92 0 0 0-1.386667 7.050667z m33.056-90.72h26.378667v131.648h-26.378667v-9.045334c-5.610667 7.722667-13.194667 11.584-22.762667 11.584-5.418667 0-10.389333-1.109333-14.933333-3.338666a37.162667 37.162667 0 0 1-11.893333-9.194667 42.858667 42.858667 0 0 1-7.893334-13.802667 50.666667 50.666667 0 0 1-2.826666-17.130666c0-5.813333 0.885333-11.338667 2.677333-16.576 1.792-5.226667 4.330667-9.813333 7.616-13.717334a36.309333 36.309333 0 0 1 11.808-9.28c4.586667-2.272 9.642667-3.413333 15.146667-3.413333 9.28 0 16.96 3.552 23.061333 10.634667v-58.368z" opacity=".7" p-id="10722"></path></svg>