<?xml version="1.0" standalone="no"?><!DOCTYPE svg PUBLIC "-//W3C//DTD SVG 1.1//EN" "http://www.w3.org/Graphics/SVG/1.1/DTD/svg11.dtd"><svg t="1625641138833" class="icon" viewBox="0 0 1024 1024" version="1.1" xmlns="http://www.w3.org/2000/svg" p-id="31055" xmlns:xlink="http://www.w3.org/1999/xlink" width="200" height="200"><defs><style type="text/css"></style></defs><path d="M950.613333 510.08c-31.36 0-56.32 24.96-62.72 56.32l-68.906666 6.186667c-12.586667-37.546667-50.133333-62.72-87.68-62.72-25.173333 0-50.133333 12.586667-68.906667 31.36L512 472.533333c0-81.493333-68.906667-150.4-156.586667-150.4-12.586667 0-25.173333 0-37.546666 6.186667l-37.546667-81.493333c25.173333-18.773333 43.946667-50.133333 43.946667-81.493334 0-12.586667 0-18.773333-6.186667-31.36l137.813333-43.946666c6.186667 25.173333 31.36 43.946667 56.32 43.946666 37.546667 0 62.72-24.96 62.72-62.72 0-37.546667-25.173333-62.72-62.72-62.72-25.173333 0-50.133333 18.773333-56.32 43.946667l-162.986666 43.946667c-12.586667-12.586667-37.546667-25.173333-62.72-25.173334-50.133333 0-94.08 43.946667-94.08 94.08s43.946667 94.08 94.08 94.08h6.186666l37.546667 87.68c-43.946667 25.173333-75.093333 75.306667-75.093333 131.626667 0 68.906667 50.133333 131.626667 112.853333 150.4l-18.773333 68.906667c-31.36 0-56.32 12.586667-68.906667 37.546666l-87.68-37.546666c0-31.36-31.36-62.72-62.72-62.72-37.546667 0-62.72 25.173333-62.72 62.72s25.173333 62.72 62.72 62.72c18.773333 0 37.546667-6.186667 43.946667-24.96l81.493333 37.546666v18.773334c0 18.773333 6.186667 31.36 12.586667 43.946666l-43.946667 56.32c-12.586667-6.186667-18.773333-6.186667-31.36-6.186666-37.546667 0-62.72 25.173333-62.72 62.72s25.173333 62.72 62.72 62.72 62.72-25.173333 62.72-62.72c0-6.186667 0-12.586667-6.186667-24.96l43.946667-56.32c18.773333 12.586667 37.546667 18.773333 56.32 18.773333 18.773333 0 37.546667-6.186667 50.133333-12.586667l50.133334 50.133334c-6.186667 6.186667-6.186667 12.586667-6.186667 24.96 0 37.546667 25.173333 62.72 62.72 62.72s62.72-25.173333 62.72-62.72-25.173333-62.72-62.72-62.72c-6.186667 0-18.773333 0-24.96 6.186666l-50.133333-56.32c6.186667-12.586667 12.586667-25.173333 12.586666-43.946666 0-37.546667-18.773333-68.906667-50.133333-81.493334l18.773333-75.306666c68.906667 0 131.626667-50.133333 150.4-112.853334l137.813334 56.32c-6.186667 6.186667-6.186667 18.773333-6.186667 24.96 0 50.133333 43.946667 94.08 94.08 94.08h18.773333l31.36 81.493334c-12.586667 12.586667-18.773333 24.96-18.773333 43.946666 0 37.546667 25.173333 62.72 62.72 62.72s62.72-25.173333 62.72-62.72-25.173333-62.72-62.72-62.72l-31.36-81.493333c18.773333-12.586667 31.36-31.36 31.36-56.32l75.093333-12.586667c12.586667 12.586667 31.36 24.96 50.133334 24.96 37.546667 0 62.72-24.96 62.72-62.72-0.853333-37.12-25.813333-62.293333-63.573334-62.293333z m0 0" p-id="31056"></path></svg>