<?xml version="1.0" standalone="no"?><!DOCTYPE svg PUBLIC "-//W3C//DTD SVG 1.1//EN" "http://www.w3.org/Graphics/SVG/1.1/DTD/svg11.dtd"><svg t="1625639393308" class="icon" viewBox="0 0 1024 1024" version="1.1" xmlns="http://www.w3.org/2000/svg" p-id="13562" xmlns:xlink="http://www.w3.org/1999/xlink" width="200" height="200"><defs><style type="text/css"></style></defs><path d="M768 928a32 32 0 0 1-32-32V384a32 32 0 0 1 32-32h128a32 32 0 0 1 32 32v512a32 32 0 0 1-32 32z m-320 0a32 32 0 0 1-32-32V128a32 32 0 0 1 32-32h128a32 32 0 0 1 32 32v768a32 32 0 0 1-32 32z m-320 0a32 32 0 0 1-32-32V576a32 32 0 0 1 32-32h128a32 32 0 0 1 32 32v320a32 32 0 0 1-32 32z" p-id="13563"></path></svg>