<?xml version="1.0" standalone="no"?><!DOCTYPE svg PUBLIC "-//W3C//DTD SVG 1.1//EN" "http://www.w3.org/Graphics/SVG/1.1/DTD/svg11.dtd"><svg t="1625640519657" class="icon" viewBox="0 0 1024 1024" version="1.1" xmlns="http://www.w3.org/2000/svg" p-id="21942" xmlns:xlink="http://www.w3.org/1999/xlink" width="200" height="200"><defs><style type="text/css"></style></defs><path d="M1014.857143 182.857143h-59.428572c-5.028571 0-9.142857 4.114286-9.142857 9.142857v283.428571h-105.142857V274.285714c0-5.028571-4.114286-9.142857-9.142857-9.142857H438.857143v493.714286h393.142857c5.028571 0 9.142857-4.114286 9.142857-9.142857V553.142857h105.142857v278.857143c0 5.028571 4.114286 9.142857 9.142857 9.142857h59.428572c5.028571 0 9.142857-4.114286 9.142857-9.142857V192c0-5.028571-4.114286-9.142857-9.142857-9.142857z m-832 91.428571v201.142857h-105.142857V192c0-5.028571-4.114286-9.142857-9.142857-9.142857H9.142857c-5.028571 0-9.142857 4.114286-9.142857 9.142857v640c0 5.028571 4.114286 9.142857 9.142857 9.142857h59.428572c5.028571 0 9.142857-4.114286 9.142857-9.142857V553.142857h105.142857v196.571429c0 5.028571 4.114286 9.142857 9.142857 9.142857h173.714286V265.142857H192c-5.028571 0-9.142857 4.114286-9.142857 9.142857z" p-id="21943"></path></svg>