<?xml version="1.0" standalone="no"?><!DOCTYPE svg PUBLIC "-//W3C//DTD SVG 1.1//EN" "http://www.w3.org/Graphics/SVG/1.1/DTD/svg11.dtd"><svg t="1625640158014" class="icon" viewBox="0 0 1024 1024" version="1.1" xmlns="http://www.w3.org/2000/svg" p-id="11221" xmlns:xlink="http://www.w3.org/1999/xlink" width="200" height="200"><defs><style type="text/css"></style></defs><path d="M1015.808 317.44c-1.024-20.48-8.192-38.912-19.456-55.296-12.288-15.36-28.672-24.576-48.128-29.696-11.264-3.072-32.768-9.216-65.536-18.432-8.192-47.104-30.72-87.04-68.608-118.784-38.912-33.792-83.968-50.176-134.144-50.176S583.68 61.44 545.792 95.232c-36.864 31.744-59.392 71.68-68.608 118.784-24.576 6.144-58.368 16.384-102.4 28.672-6.144 1.024-12.288 2.048-18.432 2.048-6.144 0-12.288-1.024-18.432-2.048-48.128-12.288-119.808-30.72-215.04-55.296-8.192-2.048-16.384-3.072-24.576-3.072-19.456 0-36.864 6.144-53.248 19.456-22.528 19.456-33.792 41.984-33.792 69.632v558.08c0 20.48 6.144 38.912 17.408 54.272C40.96 901.12 56.32 912.384 76.8 917.504c57.344 15.36 142.336 37.888 256 68.608 8.192 2.048 15.36 3.072 23.552 3.072 7.168 0 14.336-1.024 21.504-3.072 31.744-8.192 79.872-20.48 142.336-37.888 62.464-17.408 110.592-30.72 142.336-38.912 6.144-1.024 12.288-2.048 18.432-2.048 6.144 0 12.288 1.024 17.408 2.048 45.056 12.288 113.664 29.696 205.824 54.272 8.192 2.048 16.384 3.072 24.576 3.072 18.432 0 35.84-6.144 52.224-19.456 23.552-19.456 34.816-41.984 34.816-69.632V317.44zM699.392 629.76c-5.12-5.12-12.288-8.192-20.48-8.192s-15.36 3.072-19.456 8.192c-5.12 5.12-8.192 12.288-8.192 20.48v200.704l-105.472 28.672c-4.096 1.024-14.336 4.096-27.648 9.216l-3.072 2.048c-19.456 5.12-56.32 15.36-108.544 30.72V318.464c0-7.168 2.048-13.312 7.168-19.456 4.096-5.12 8.192-8.192 16.384-9.216 11.264-3.072 26.624-8.192 48.128-13.312 3.072 28.672 12.288 55.296 26.624 79.872 29.696 44.032 75.776 108.544 136.192 195.584 9.216 13.312 23.552 20.48 39.936 20.48 15.36 0 28.672-6.144 39.936-20.48 61.44-87.04 107.52-151.552 139.264-195.584 14.336-25.6 22.528-52.224 25.6-78.848 12.288 3.072 28.672 8.192 48.128 13.312 7.168 2.048 13.312 6.144 17.408 11.264 4.096 5.12 6.144 10.24 6.144 17.408v560.128c0 11.264-4.096 18.432-13.312 23.552-5.12 4.096-10.24 6.144-16.384 6.144-3.072 0-6.144 0-10.24-1.024-40.96-11.264-102.4-28.672-186.368-51.2-4.096-1.024-11.264-3.072-23.552-5.12V650.24c0-8.192-3.072-15.36-8.192-20.48z m110.592-306.176c-28.672 40.96-70.656 102.4-128 184.32l-2.048-1.024c-28.672-40.96-70.656-102.4-126.976-183.296-12.288-21.504-18.432-46.08-18.432-72.704v-8.192c0-37.888 13.312-70.656 39.936-97.28C604.16 117.76 638.976 102.4 679.936 102.4c40.96 0 75.776 14.336 105.472 43.008 28.672 28.672 43.008 64.512 43.008 105.472 0 23.552-6.144 48.128-18.432 72.704z m-740.352-51.2c0-9.216 4.096-17.408 11.264-23.552 5.12-4.096 9.216-6.144 14.336-6.144h3.072c3.072 0 7.168 0 9.216 1.024 48.128 12.288 119.808 31.744 215.04 57.344 7.168 2.048 12.288 6.144 16.384 11.264 4.096 5.12 6.144 10.24 6.144 17.408v300.032l2.048 2.048v299.008c-57.344-15.36-142.336-37.888-252.928-67.584-8.192-3.072-14.336-7.168-18.432-12.288-4.096-6.144-6.144-13.312-6.144-21.504V272.384z" p-id="11222"></path><path d="M679.936 166.912c-22.528 0-43.008 8.192-58.368 24.576-16.384 15.36-24.576 35.84-24.576 58.368s8.192 43.008 24.576 59.392c15.36 15.36 34.816 23.552 58.368 23.552 22.528 0 43.008-8.192 59.392-23.552 15.36-16.384 23.552-35.84 23.552-59.392 0-22.528-8.192-41.984-23.552-58.368-16.384-16.384-35.84-24.576-59.392-24.576z m-16.384 65.536c5.12-5.12 10.24-7.168 16.384-7.168 6.144 0 12.288 2.048 16.384 7.168 5.12 5.12 7.168 10.24 7.168 16.384 0 7.168-2.048 12.288-7.168 16.384-5.12 5.12-10.24 7.168-16.384 7.168-6.144 0-12.288-2.048-16.384-7.168-5.12-5.12-7.168-10.24-7.168-16.384 0-6.144 2.048-11.264 7.168-16.384z" p-id="11223"></path></svg>