<?xml version="1.0" standalone="no"?><!DOCTYPE svg PUBLIC "-//W3C//DTD SVG 1.1//EN" "http://www.w3.org/Graphics/SVG/1.1/DTD/svg11.dtd"><svg t="1625640462126" class="icon" viewBox="0 0 1072 1024" version="1.1" xmlns="http://www.w3.org/2000/svg" p-id="20151" xmlns:xlink="http://www.w3.org/1999/xlink" width="209.375" height="200"><defs><style type="text/css"></style></defs><path d="M402.304872 777.789419l308.433735 62.75956L795.490833 965.531692H277.322158z m102.990047-522.996334L187.742273 406.596124l-89.579884-21.992667 402.304871-290.73232v160.921948z m375.484547 147.511787L563.22682 250.501833v-160.921948l402.304872 295.023572-84.752226 17.701415zM174.332111 465.064432l174.332111 281.61341-120.691461 183.451021-156.630697-487.593504 102.990047 22.529073z m666.216868 465.064431l-76.169723-116.400209 138.392876-344.37297 98.698795-22.529073-160.921948 482.765846zM1072.812991 402.304872v-9.118911a11.264536 11.264536 0 0 0-4.291252-8.582504l-4.291252-4.827658-510.122577-375.484547a16.092195 16.092195 0 0 0-8.582504-4.291252h-18.237821c-4.291252 0-4.291252 0-8.582504 4.291252L9.11891 375.484547l-4.827658 4.291252a11.264536 11.264536 0 0 1-4.291252 9.11891v17.701415l192.033525 599.166055a13.946569 13.946569 0 0 0 4.827659 9.118911l4.291252 4.291252c4.291252 0 4.291252 0 9.11891 4.827658h657.097957l9.118911-9.11891a11.264536 11.264536 0 0 1 4.291252-9.118911L1072.812991 406.596124V402.304872z" p-id="20152"></path></svg>