<?xml version="1.0" standalone="no"?><!DOCTYPE svg PUBLIC "-//W3C//DTD SVG 1.1//EN" "http://www.w3.org/Graphics/SVG/1.1/DTD/svg11.dtd"><svg t="1625640356354" class="icon" viewBox="0 0 1024 1024" version="1.1" xmlns="http://www.w3.org/2000/svg" p-id="14702" xmlns:xlink="http://www.w3.org/1999/xlink" width="200" height="200"><defs><style type="text/css"></style></defs><path d="M924 865.236c0 9.076-3.18 16.336-9.54 22.689-6.36 6.352-13.629 9.075-22.714 9.075H160.8c-9.086 0-16.354-3.176-22.714-9.075-6.36-6.353-9.086-13.613-9.086-22.689V133.764c0-9.076 3.18-16.336 9.086-22.689 6.36-6.352 13.628-9.075 22.714-9.075 9.086 0 16.354 3.176 22.714 9.075 6.36 6.353 9.54 13.613 9.54 22.689v699.255H892.2c9.086 0 16.354 3.176 22.714 9.075 5.906 6.807 9.086 14.067 9.086 23.142zM264.669 667.571h32.394v22.679c0 17.69 14.143 31.75 31.937 31.75s31.938-14.06 31.938-31.75v-22.679h32.393c5.019 0 8.669-4.082 8.669-8.617v-209.55c0-4.99-4.106-8.618-8.669-8.618h-32.394V245.75c0-17.69-14.143-31.75-31.937-31.75s-31.938 14.06-31.938 31.75v195.036H264.67c-5.019 0-8.669 4.082-8.669 8.618V658.5c0 4.99 4.106 9.071 8.669 9.071z m230-108.541h32.394v190.26c0 17.667 14.143 31.71 31.937 31.71s31.938-14.043 31.938-31.71V559.03h32.393c5.019 0 8.669-4.077 8.669-8.607V449.857c0-4.983-4.106-8.607-8.669-8.607h-32.394v-81.54c0-17.667-14.143-31.71-31.937-31.71s-31.938 14.043-31.938 31.71v81.54H494.67c-5.019 0-8.669 4.077-8.669 8.607V549.97c0 4.983 4.106 9.06 8.669 9.06z m226-117.694h32.394v196.968c0 17.66 14.143 31.696 31.937 31.696s31.938-14.037 31.938-31.696V441.336h32.393c5.019 0 8.669-4.075 8.669-8.603V223.539c0-4.98-4.106-8.603-8.669-8.603h-32.394v-79.24c0-17.66-14.143-31.696-31.937-31.696s-31.938 14.037-31.938 31.696v79.24H720.67c-5.019 0-8.669 4.075-8.669 8.603V432.28c0 4.98 4.106 9.056 8.669 9.056z" p-id="14703"></path></svg>