<?xml version="1.0" standalone="no"?><!DOCTYPE svg PUBLIC "-//W3C//DTD SVG 1.1//EN" "http://www.w3.org/Graphics/SVG/1.1/DTD/svg11.dtd"><svg class="icon" width="200px" height="200.00px" viewBox="0 0 1024 1024" version="1.1" xmlns="http://www.w3.org/2000/svg"><path fill="#515151" d="M828.406 90.125H195.594c-58.219 0-105.469 47.25-105.469 105.469v632.812c0 58.219 47.25 105.469 105.469 105.469h632.812c58.219 0 105.469-47.25 105.469-105.469V195.594c0-58.219-47.25-105.469-105.469-105.469z m52.735 738.281c0 29.16-23.57 52.735-52.735 52.735H195.594c-29.11 0-52.735-23.575-52.735-52.735V195.594c0-29.11 23.625-52.735 52.735-52.735h632.812c29.16 0 52.735 23.625 52.735 52.735v632.812zM421.529 709.56a36.281 36.281 0 0 1-27.553-12.67L205.175 476.614a36.285 36.285 0 0 1 55.1-47.229L425.264 621.87l342.161-298.48a36.29 36.29 0 0 1 47.71 54.687L445.386 700.62a36.323 36.323 0 0 1-23.857 8.94z" /></svg>