<?xml version="1.0" standalone="no"?><!DOCTYPE svg PUBLIC "-//W3C//DTD SVG 1.1//EN" "http://www.w3.org/Graphics/SVG/1.1/DTD/svg11.dtd"><svg t="1625626826446" class="icon" viewBox="0 0 1024 1024" version="1.1" xmlns="http://www.w3.org/2000/svg" p-id="4147" xmlns:xlink="http://www.w3.org/1999/xlink" width="200" height="200"><defs><style type="text/css"></style></defs><path d="M880.808 772.594C840.1 880.919 735.552 958 613 958H474c-14.912 0-27-12.088-27-27v-74c0-14.912 12.088-27 27-27h139c14.912 0 27 12.088 27 27v33.126c75.81-13.834 139.085-63.584 171.544-130.972C783.014 741.541 764 709.991 764 674V548c0-44.037 28.465-81.426 68-94.77v-2.73C832 273.493 688.507 130 511.5 130S191 273.493 191 450.5v2.398c40.054 13.047 69 50.694 69 95.102v126c0 55.228-44.772 100-100 100S60 729.228 60 674V548c0-43.665 27.986-80.794 67-94.427V450.5C127 238.147 299.147 66 511.5 66S896 238.147 896 450.5v2.73c39.535 13.344 68 50.733 68 94.77v126c0 49.5-35.966 90.6-83.192 98.593zM864 512c-19.882 0-36 16.118-36 36v126c0 19.882 16.118 36 36 36s36-16.118 36-36V548c0-19.882-16.118-36-36-36z m-704 0c-19.882 0-36 16.118-36 36v126c0 19.882 16.118 36 36 36s36-16.118 36-36V548c0-19.882-16.118-36-36-36z" p-id="4148"></path></svg>