<?xml version="1.0" standalone="no"?><!DOCTYPE svg PUBLIC "-//W3C//DTD SVG 1.1//EN" "http://www.w3.org/Graphics/SVG/1.1/DTD/svg11.dtd"><svg t="1624850555236" class="icon" viewBox="0 0 1024 1024" version="1.1" xmlns="http://www.w3.org/2000/svg" p-id="13153" xmlns:xlink="http://www.w3.org/1999/xlink" width="200" height="200"><defs><style type="text/css"></style></defs><path d="M512 64a448 448 0 1 1 0 896A448 448 0 0 1 512 64z m-5.12 593.28a50.432 50.432 0 0 0-35.2 13.44 45.632 45.632 0 0 0-14.08 34.56c0 14.08 4.672 25.6 14.08 34.56a50.56 50.56 0 0 0 35.2 14.08c14.08 0 25.792-4.48 35.2-13.44a45.44 45.44 0 0 0 14.72-35.2 46.976 46.976 0 0 0-14.08-34.56 49.792 49.792 0 0 0-35.84-13.44zM518.4 288c-46.912 0-84.288 13.44-112 40.32-24.96 23.808-38.656 56.256-41.152 97.344L364.8 439.68h72.96c0-27.328 5.312-48.192 16-62.72 11.968-17.472 32-26.24 60.16-26.24 22.208 0 39.232 5.952 51.2 17.92 11.968 12.8 17.92 29.44 17.92 49.92 0 13.504-4.032 26.24-12.032 38.336l-5.248 7.104-7.68 8.96-21.12 19.2-17.792 17.28c-18.816 19.008-30.784 33.92-35.968 44.8-7.104 13.888-11.264 30.72-12.416 50.496l-0.384 12.224v8.96H544v-8.96c0-14.912 3.2-28.8 9.6-41.6 4.48-9.28 10.368-17.6 17.728-24.96l33.92-30.016 18.304-16.832 10.688-10.752c15.808-20.928 23.68-47.168 23.68-78.72 0-39.232-12.8-69.952-38.4-92.16-25.152-22.592-58.88-33.92-101.12-33.92z" p-id="13154"></path></svg>