<?xml version="1.0" standalone="no"?><!DOCTYPE svg PUBLIC "-//W3C//DTD SVG 1.1//EN" "http://www.w3.org/Graphics/SVG/1.1/DTD/svg11.dtd"><svg t="1626924254841" class="icon" viewBox="0 0 1024 1024" version="1.1" xmlns="http://www.w3.org/2000/svg" p-id="2154" xmlns:xlink="http://www.w3.org/1999/xlink" width="200" height="200"><defs><style type="text/css">@font-face { font-family: feedback-iconfont; src: url("//at.alicdn.com/t/font_1031158_1uhr8ri0pk5.eot?#iefix") format("embedded-opentype"), url("//at.alicdn.com/t/font_1031158_1uhr8ri0pk5.woff2") format("woff2"), url("//at.alicdn.com/t/font_1031158_1uhr8ri0pk5.woff") format("woff"), url("//at.alicdn.com/t/font_1031158_1uhr8ri0pk5.ttf") format("truetype"), url("//at.alicdn.com/t/font_1031158_1uhr8ri0pk5.svg#iconfont") format("svg"); }
</style></defs><path d="M287.957 192.427h-64c-17.642 0-31.957 14.293-31.957 31.914v63.915c0 17.621 14.293 31.915 31.957 31.915h64c17.643 0 31.958-14.294 31.958-31.915v-63.915c0-17.621-14.294-31.914-31.958-31.914z m0 255.573h-64C206.315 448 192 462.293 192 479.915v63.914c0 17.622 14.293 31.915 31.957 31.915h64c17.643 0 31.958-14.293 31.958-31.915v-63.914c0-17.622-14.294-31.915-31.958-31.915z m0 255.573h-64c-17.642 0-31.957 14.294-31.957 31.915v63.915c0 17.621 14.293 31.914 31.957 31.914h64c17.643 0 31.958-14.293 31.958-31.914v-63.915c0-17.621-14.294-31.915-31.958-31.915z m127.915-415.317h383.83a31.936 31.936 0 1 0 0-63.83h-383.83a31.936 31.936 0 1 0 0 63.83z m383.83 191.659h-383.83a31.936 31.936 0 1 0 0 63.829h383.83a31.936 31.936 0 1 0 0-63.83z m0 255.573h-383.83a31.936 31.936 0 1 0 0 63.83h383.83a31.936 31.936 0 1 0 0-63.83z" p-id="2155"></path></svg>