<?xml version="1.0" standalone="no"?><!DOCTYPE svg PUBLIC "-//W3C//DTD SVG 1.1//EN" "http://www.w3.org/Graphics/SVG/1.1/DTD/svg11.dtd"><svg t="1626923763695" class="icon" viewBox="0 0 1024 1024" version="1.1" xmlns="http://www.w3.org/2000/svg" p-id="2061" xmlns:xlink="http://www.w3.org/1999/xlink" width="200" height="200"><defs><style type="text/css">@font-face { font-family: feedback-iconfont; src: url("//at.alicdn.com/t/font_1031158_1uhr8ri0pk5.eot?#iefix") format("embedded-opentype"), url("//at.alicdn.com/t/font_1031158_1uhr8ri0pk5.woff2") format("woff2"), url("//at.alicdn.com/t/font_1031158_1uhr8ri0pk5.woff") format("woff"), url("//at.alicdn.com/t/font_1031158_1uhr8ri0pk5.ttf") format("truetype"), url("//at.alicdn.com/t/font_1031158_1uhr8ri0pk5.svg#iconfont") format("svg"); }
</style></defs><path d="M927.904 616H616a34.624 34.624 0 1 0 0 69.312h311.904a34.656 34.656 0 0 0 0-69.312z m0 173.248H616a34.624 34.624 0 1 0 0 69.312h311.904a34.656 34.656 0 0 0 0-69.312zM373.344 61.44H165.408a104.128 104.128 0 0 0-104 104v207.936a104.128 104.128 0 0 0 104 104h207.936a104.128 104.128 0 0 0 104-104V165.44a104.128 104.128 0 0 0-104-104z m34.656 311.904c0 19.104-15.552 34.656-34.656 34.656H165.408a34.688 34.688 0 0 1-34.656-34.656V165.408c0-19.104 15.552-34.656 34.656-34.656h207.936c19.104 0 34.656 15.552 34.656 34.656v207.936zM858.56 61.44h-207.936a104.128 104.128 0 0 0-104 104v207.936a104.128 104.128 0 0 0 104 104h207.936a104.128 104.128 0 0 0 104-104V165.44a104.128 104.128 0 0 0-104-104z m34.688 311.904c0 19.104-15.552 34.656-34.656 34.656h-207.936a34.688 34.688 0 0 1-34.656-34.656V165.408c0-19.104 15.552-34.656 34.656-34.656h207.936c19.104 0 34.656 15.552 34.656 34.656v207.936z m-519.904 173.312H165.408a104.128 104.128 0 0 0-104 104v207.968a104.128 104.128 0 0 0 104 104h207.936a104.128 104.128 0 0 0 104-104v-207.968a104.128 104.128 0 0 0-104-104z m34.656 311.904c0 19.136-15.552 34.656-34.656 34.656H165.408a34.688 34.688 0 0 1-34.656-34.656v-207.968c0-19.136 15.552-34.656 34.656-34.656h207.936c19.104 0 34.656 15.52 34.656 34.656v207.968z" p-id="2062"></path></svg>