<?xml version="1.0" standalone="no"?><!DOCTYPE svg PUBLIC "-//W3C//DTD SVG 1.1//EN" "http://www.w3.org/Graphics/SVG/1.1/DTD/svg11.dtd"><svg t="1625626776385" class="icon" viewBox="0 0 1024 1024" version="1.1" xmlns="http://www.w3.org/2000/svg" p-id="3422" xmlns:xlink="http://www.w3.org/1999/xlink" width="200" height="200"><defs><style type="text/css"></style></defs><path d="M298.49 680.255H119.834c-17.673 0-32-14.327-32-32 0-17.673 14.327-32 32-32h256c17.673 0 32 14.327 32 32v256c0 17.673-14.327 32-32 32-17.673 0-32-14.327-32-32V725.42L118.627 950.627c-12.496 12.497-32.758 12.497-45.254 0-12.497-12.496-12.497-32.758 0-45.254L298.49 680.255z m426.93-336.42h178.835c17.673 0 32 14.326 32 32 0 17.672-14.327 32-32 32h-256c-17.673 0-32-14.328-32-32v-256c0-17.674 14.327-32 32-32 17.673 0 32 14.326 32 32V298.49L905.373 73.373c12.496-12.497 32.758-12.497 45.254 0 12.497 12.496 12.497 32.758 0 45.254L725.421 343.834zM680.256 725.51v178.745c0 17.673-14.327 32-32 32-17.673 0-32-14.327-32-32v-256c0-17.673 14.327-32 32-32h256c17.673 0 32 14.327 32 32 0 17.673-14.327 32-32 32H725.51l225.117 225.118c12.497 12.496 12.497 32.758 0 45.254-12.496 12.497-32.758 12.497-45.254 0L680.255 725.51z m-336.42-426.93V119.833c0-17.673 14.326-32 32-32 17.672 0 32 14.327 32 32v256c0 17.673-14.328 32-32 32h-256c-17.674 0-32-14.327-32-32 0-17.673 14.326-32 32-32h178.744L73.373 118.627c-12.497-12.496-12.497-32.758 0-45.254 12.496-12.497 32.758-12.497 45.254 0l225.207 225.206z" p-id="3423"></path></svg>