<?xml version="1.0" standalone="no"?><!DOCTYPE svg PUBLIC "-//W3C//DTD SVG 1.1//EN" "http://www.w3.org/Graphics/SVG/1.1/DTD/svg11.dtd"><svg t="1625626786552" class="icon" viewBox="0 0 1024 1024" version="1.1" xmlns="http://www.w3.org/2000/svg" p-id="3567" xmlns:xlink="http://www.w3.org/1999/xlink" width="200" height="200"><defs><style type="text/css"></style></defs><path d="M245 128H133a8 8 0 0 0-8 8v752a8 8 0 0 0 8 8h752a8 8 0 0 0 8-8V136a8 8 0 0 0-8-8H774v321c0 17.673-14.327 32-32 32H277c-17.673 0-32-14.327-32-32V128zM93 64h832c17.673 0 32 14.327 32 32v832c0 17.673-14.327 32-32 32H93c-17.673 0-32-14.327-32-32V96c0-17.673 14.327-32 32-32z m224 64a8 8 0 0 0-8 8v273a8 8 0 0 0 8 8h385a8 8 0 0 0 8-8V136a8 8 0 0 0-8-8H317z m304 35c17.673 0 32 14.327 32 32v145c0 17.673-14.327 32-32 32-17.673 0-32-14.327-32-32V195c0-17.673 14.327-32 32-32z" p-id="3568"></path></svg>