<?xml version="1.0" standalone="no"?><!DOCTYPE svg PUBLIC "-//W3C//DTD SVG 1.1//EN" "http://www.w3.org/Graphics/SVG/1.1/DTD/svg11.dtd"><svg t="1625626797762" class="icon" viewBox="0 0 1024 1024" version="1.1" xmlns="http://www.w3.org/2000/svg" p-id="3712" xmlns:xlink="http://www.w3.org/1999/xlink" width="200" height="200"><defs><style type="text/css"></style></defs><path d="M352 128H136a8 8 0 0 0-8 8v216c0 17.673-14.327 32-32 32-17.673 0-32-14.327-32-32V96c0-17.673 14.327-32 32-32h256c17.673 0 32 14.327 32 32 0 17.673-14.327 32-32 32z m544 224V136a8 8 0 0 0-8-8H672c-17.673 0-32-14.327-32-32 0-17.673 14.327-32 32-32h256c17.673 0 32 14.327 32 32v256c0 17.673-14.327 32-32 32-17.673 0-32-14.327-32-32zM128 672v216a8 8 0 0 0 8 8h216c17.673 0 32 14.327 32 32 0 17.673-14.327 32-32 32H96c-17.673 0-32-14.327-32-32V672c0-17.673 14.327-32 32-32 17.673 0 32 14.327 32 32z m800-32c17.673 0 32 14.327 32 32v256c0 17.673-14.327 32-32 32H672c-17.673 0-32-14.327-32-32 0-17.673 14.327-32 32-32h216a8 8 0 0 0 8-8V672c0-17.673 14.327-32 32-32zM96 480h832c17.673 0 32 14.327 32 32 0 17.673-14.327 32-32 32H96c-17.673 0-32-14.327-32-32 0-17.673 14.327-32 32-32z" p-id="3713"></path></svg>