<?xml version="1.0" standalone="no"?><!DOCTYPE svg PUBLIC "-//W3C//DTD SVG 1.1//EN" "http://www.w3.org/Graphics/SVG/1.1/DTD/svg11.dtd"><svg class="icon" width="200px" height="200.00px" viewBox="0 0 1024 1024" version="1.1" xmlns="http://www.w3.org/2000/svg"><path fill="#515151" d="M692 792H332C182 792 62 672 62 522s120-270 270-270h360c150 0 270 120 270 270 0 147-120 270-270 270zM332 312c-117 0-210 93-210 210s93 210 210 210h360c117 0 210-93 210-210s-93-210-210-210H332zM191 522a150 150 0 1 0 300 0 150 150 0 1 0-300 0z" /></svg>