<?xml version="1.0" standalone="no"?><!DOCTYPE svg PUBLIC "-//W3C//DTD SVG 1.1//EN" "http://www.w3.org/Graphics/SVG/1.1/DTD/svg11.dtd"><svg class="icon" width="200px" height="200.00px" viewBox="0 0 1024 1024" version="1.1" xmlns="http://www.w3.org/2000/svg"><path fill="#515151" d="M1003.996156 295.873688L762.686042 22.643823C749.878142 8.147936 732.518277 0.004 714.398419 0.004c-18.103859 0-35.463723 8.143936-48.263623 22.639823l-30.287764 34.287732c-12.7999 14.495887-30.159764 22.639823-48.255623 22.647823H436.42459c-18.103859 0-35.471723-8.143936-48.263623-22.639823L357.873204 22.643823C345.073304 8.147936 327.71344 0.004 309.609581 0.004c-18.103859 0-35.471723 8.143936-48.271623 22.639823L20.003844 295.873688C7.203944 310.369575 0.004 330.033422 0.004 350.521262c0 20.49584 7.191944 40.159686 19.999844 54.647573L116.52309 514.479981c17.423864 19.743846 42.935665 27.223787 66.639479 19.551847 10.799916-3.479973 21.671831 4.735963 21.671831 17.439864v395.252912c0 42.503668 30.71976 77.279396 68.255466 77.279396h477.804268c37.543707 0 68.255467-34.775728 68.255466-77.279396V551.471692c0-12.719901 10.879915-20.927837 21.679831-17.447864 23.695815 7.67994 49.199616 0.191999 66.631479-19.551847L1003.996156 405.168835c12.7999-14.487887 19.991844-34.151733 19.991844-54.639574 0-20.50384-7.191944-40.159686-19.999844-54.655573z" /></svg>