<?xml version="1.0" standalone="no"?><!DOCTYPE svg PUBLIC "-//W3C//DTD SVG 1.1//EN" "http://www.w3.org/Graphics/SVG/1.1/DTD/svg11.dtd"><svg t="1625626720989" class="icon" viewBox="0 0 1024 1024" version="1.1" xmlns="http://www.w3.org/2000/svg" p-id="2842" xmlns:xlink="http://www.w3.org/1999/xlink" width="200" height="200"><defs><style type="text/css"></style></defs><path d="M484 896v-67.41C340.257 814.293 228 693.006 228 545.5V412c0-17.673 14.327-32 32-32 17.673 0 32 14.327 32 32v133.5c0 112.121 83.684 204.697 192 218.675V698c0-17.673 14.327-32 32-32 17.673 0 32 14.327 32 32v65.157C652.9 746.18 733 655.194 733 545.5V412c0-17.673 14.327-32 32-32 17.673 0 32 14.327 32 32v133.5c0 145.103-108.629 264.834-249 282.307V896h194c17.673 0 32 14.327 32 32 0 17.673-14.327 32-32 32H283c-17.673 0-32-14.327-32-32 0-17.673 14.327-32 32-32h201z m13.5-826h30C601.23 70 661 129.77 661 203.5v280c0 73.73-59.77 133.5-133.5 133.5h-30C423.77 617 364 557.23 364 483.5v-280C364 129.77 423.77 70 497.5 70z m15 64c-46.668 0-84.5 37.832-84.5 84.5v250c0 46.668 37.832 84.5 84.5 84.5s84.5-37.832 84.5-84.5v-250c0-46.668-37.832-84.5-84.5-84.5z" p-id="2843"></path></svg>